<?xml version="1.0" encoding="UTF-8"?>
<svg xmlns="http://www.w3.org/2000/svg" xmlns:xlink="http://www.w3.org/1999/xlink" width="100px" height="118px" viewBox="0 0 100 118" version="1.1">
<g id="surface1">
<path style=" stroke:none;fill-rule:nonzero;fill:rgb(1.176471%,25.490198%,33.725491%);fill-opacity:1;" d="M 44.027344 64.519531 L 18.441406 64.519531 C 17.378906 64.519531 16.519531 63.660156 16.515625 62.597656 L 16.515625 35.703125 C 16.519531 34.644531 17.378906 33.785156 18.441406 33.78125 L 19.433594 33.78125 C 20.496094 33.78125 21.359375 32.921875 21.359375 31.863281 C 21.359375 31.332031 21.140625 30.851562 20.792969 30.503906 C 20.445312 30.15625 19.964844 29.941406 19.433594 29.941406 L 18.441406 29.941406 C 15.253906 29.945312 12.671875 32.523438 12.671875 35.703125 L 12.671875 62.597656 C 12.671875 65.777344 15.253906 68.355469 18.441406 68.359375 L 44.027344 68.359375 C 45.089844 68.359375 45.949219 67.5 45.949219 66.441406 C 45.949219 65.910156 45.734375 65.429688 45.386719 65.082031 C 45.039062 64.734375 44.558594 64.519531 44.027344 64.519531 Z M 44.027344 64.519531 "/>
<path style=" stroke:none;fill-rule:nonzero;fill:rgb(1.176471%,25.490198%,33.725491%);fill-opacity:1;" d="M 78.667969 33.980469 C 76.890625 33.019531 74.726562 33.136719 73.058594 34.269531 L 67.609375 37.925781 L 64.152344 40.242188 L 64.152344 38.078125 L 58.011719 38.078125 L 58.003906 34.902344 C 57.613281 32.101562 55.207031 29.945312 52.292969 29.945312 L 26.65625 29.945312 C 25.59375 29.945312 24.734375 30.804688 24.734375 31.863281 C 24.734375 32.394531 24.949219 32.875 25.296875 33.222656 C 25.644531 33.570312 26.125 33.785156 26.65625 33.785156 L 52.292969 33.785156 C 53.355469 33.785156 54.214844 34.644531 54.21875 35.703125 L 54.21875 62.597656 C 54.214844 63.660156 53.355469 64.519531 52.292969 64.523438 L 51.007812 64.523438 C 49.945312 64.523438 49.085938 65.382812 49.085938 66.441406 C 49.085938 66.972656 49.300781 67.453125 49.648438 67.800781 C 49.996094 68.148438 50.476562 68.363281 51.007812 68.363281 L 52.292969 68.363281 C 55.453125 68.359375 58.019531 65.820312 58.0625 62.675781 L 58.054688 60.230469 L 64.152344 60.230469 L 64.152344 58.058594 L 67.609375 60.375 L 73.058594 64.027344 C 74.722656 65.175781 76.894531 65.285156 78.667969 64.320312 C 80.6875 63.199219 81.925781 61.058594 81.882812 58.75 L 81.882812 39.554688 C 81.925781 37.246094 80.6875 35.101562 78.667969 33.980469 Z M 61.5 57.578125 L 59.332031 57.578125 L 59.332031 40.726562 L 61.5 40.726562 Z M 76.855469 60.929688 C 76.335938 61.222656 75.6875 61.1875 75.203125 60.835938 L 67.609375 55.746094 L 67.164062 55.445312 L 67.085938 55.394531 L 64.152344 53.429688 L 64.152344 44.867188 L 67.164062 42.847656 L 67.609375 42.550781 L 75.203125 37.464844 C 75.691406 37.117188 76.335938 37.082031 76.855469 37.371094 C 77.625 37.824219 78.074219 38.664062 78.035156 39.550781 L 78.035156 58.746094 C 78.078125 59.632812 77.625 60.476562 76.855469 60.929688 Z M 76.855469 60.929688 "/>
<path style=" stroke:none;fill-rule:nonzero;fill:rgb(1.176471%,25.490198%,33.725491%);fill-opacity:1;" d="M 25.253906 38.902344 C 24.863281 37.25 23.207031 36.230469 21.554688 36.617188 C 19.902344 37.007812 18.878906 38.660156 19.269531 40.3125 C 19.660156 41.960938 21.316406 42.980469 22.96875 42.59375 C 24.617188 42.203125 25.640625 40.550781 25.253906 38.902344 Z M 25.253906 38.902344 "/>
<path style=" stroke:none;fill-rule:nonzero;fill:rgb(100%,100%,100%);fill-opacity:1;" d="M 45.046875 63.707031 L 19.460938 63.707031 C 18.398438 63.707031 17.539062 62.84375 17.535156 61.78125 L 17.535156 34.886719 C 17.539062 33.828125 18.398438 32.96875 19.460938 32.96875 L 20.453125 32.96875 C 21.515625 32.96875 22.378906 32.109375 22.378906 31.046875 C 22.378906 30.515625 22.160156 30.039062 21.8125 29.6875 C 21.464844 29.34375 20.984375 29.128906 20.453125 29.128906 L 19.460938 29.128906 C 16.273438 29.128906 13.691406 31.707031 13.691406 34.886719 L 13.691406 61.78125 C 13.691406 64.964844 16.273438 67.542969 19.460938 67.546875 L 45.046875 67.546875 C 46.109375 67.546875 46.96875 66.683594 46.96875 65.625 C 46.96875 65.097656 46.753906 64.617188 46.40625 64.265625 C 46.058594 63.917969 45.578125 63.707031 45.046875 63.707031 Z M 45.046875 63.707031 "/>
<path style=" stroke:none;fill-rule:nonzero;fill:rgb(100%,100%,100%);fill-opacity:1;" d="M 79.6875 33.164062 C 77.910156 32.207031 75.746094 32.320312 74.078125 33.457031 L 68.628906 37.109375 L 65.175781 39.425781 L 65.175781 37.261719 L 59.03125 37.261719 L 59.023438 34.085938 C 58.632812 31.285156 56.226562 29.132812 53.3125 29.128906 L 27.675781 29.128906 C 26.613281 29.128906 25.753906 29.988281 25.753906 31.050781 C 25.753906 31.582031 25.96875 32.058594 26.316406 32.40625 C 26.664062 32.753906 27.144531 32.96875 27.675781 32.96875 L 53.3125 32.96875 C 54.375 32.972656 55.234375 33.832031 55.238281 34.890625 L 55.238281 61.785156 C 55.234375 62.847656 54.375 63.707031 53.3125 63.707031 L 52.027344 63.707031 C 50.964844 63.707031 50.105469 64.566406 50.105469 65.628906 C 50.105469 66.15625 50.320312 66.636719 50.667969 66.984375 C 51.015625 67.332031 51.496094 67.546875 52.027344 67.546875 L 53.3125 67.546875 C 56.472656 67.542969 59.039062 65.007812 59.082031 61.859375 L 59.074219 59.414062 L 65.175781 59.414062 L 65.175781 57.246094 L 68.628906 59.5625 L 74.078125 63.214844 C 75.742188 64.359375 77.914062 64.472656 79.6875 63.503906 C 81.707031 62.386719 82.945312 60.242188 82.902344 57.933594 L 82.902344 38.738281 C 82.945312 36.433594 81.707031 34.289062 79.6875 33.167969 Z M 62.519531 56.765625 L 60.351562 56.765625 L 60.351562 39.910156 L 62.519531 39.910156 Z M 77.878906 60.113281 C 77.355469 60.410156 76.707031 60.375 76.222656 60.019531 L 68.628906 54.933594 L 68.183594 54.632812 L 68.105469 54.582031 L 65.171875 52.617188 L 65.171875 44.050781 L 68.183594 42.03125 L 68.628906 41.738281 L 76.222656 36.648438 C 76.710938 36.304688 77.355469 36.265625 77.878906 36.554688 C 78.644531 37.011719 79.09375 37.847656 79.054688 38.738281 L 79.054688 57.933594 C 79.097656 58.820312 78.644531 59.660156 77.878906 60.113281 Z M 77.878906 60.113281 "/>
<path style=" stroke:none;fill-rule:nonzero;fill:rgb(100%,100%,100%);fill-opacity:1;" d="M 26.269531 38.085938 C 25.882812 36.4375 24.226562 35.414062 22.574219 35.804688 C 20.921875 36.191406 19.898438 37.847656 20.289062 39.496094 C 20.679688 41.144531 22.335938 42.167969 23.984375 41.777344 C 25.636719 41.386719 26.660156 39.734375 26.269531 38.085938 Z M 26.269531 38.085938 "/>
<path style=" stroke:none;fill-rule:nonzero;fill:rgb(95.686275%,81.176472%,0%);fill-opacity:1;" d="M 76.40625 9.773438 C 68.402344 3.691406 58.425781 0.0742188 47.617188 0.0742188 C 21.363281 0.0742188 0 21.410156 0 47.628906 C 0 58.121094 3.585938 68.457031 9.988281 76.742188 C 10.625 77.570312 11.832031 77.679688 12.597656 76.96875 C 13.269531 76.34375 13.339844 75.3125 12.78125 74.589844 C 6.839844 66.925781 3.535156 57.445312 3.535156 47.628906 C 3.535156 23.355469 23.3125 3.609375 47.617188 3.609375 C 57.617188 3.609375 66.855469 6.949219 74.257812 12.582031 C 74.996094 13.140625 76.039062 13.054688 76.65625 12.367188 C 77.351562 11.59375 77.234375 10.398438 76.40625 9.773438 Z M 82.824219 15.640625 C 82.117188 14.863281 80.898438 14.859375 80.195312 15.640625 C 79.582031 16.320312 79.597656 17.347656 80.210938 18.023438 C 87.34375 25.84375 91.703125 36.238281 91.703125 47.628906 C 91.703125 60.195312 86.386719 71.558594 77.882812 79.59375 C 77.535156 79.921875 77.335938 80.371094 77.335938 80.847656 L 77.335938 80.980469 C 77.335938 82.488281 79.136719 83.253906 80.234375 82.222656 C 89.460938 73.535156 95.238281 61.230469 95.238281 47.628906 C 95.238281 35.320312 90.53125 24.09375 82.824219 15.640625 Z M 18.226562 80.925781 C 17.621094 80.097656 16.425781 79.988281 15.675781 80.6875 L 12.027344 84.082031 L 3.589844 92.140625 C 3.050781 92.65625 2.894531 93.378906 3.175781 94.074219 C 3.453125 94.769531 4.070312 95.183594 4.8125 95.183594 L 35.792969 95.183594 C 36.957031 95.183594 37.800781 94.082031 37.5 92.957031 C 37.292969 92.1875 36.59375 91.652344 35.792969 91.652344 L 9.21875 91.652344 C 9.21875 91.652344 18.257812 83.019531 18.257812 83.019531 C 18.261719 83.015625 18.265625 83.011719 18.269531 83.007812 C 18.773438 82.519531 18.808594 81.71875 18.394531 81.152344 Z M 18.226562 80.925781 "/>
<path style=" stroke:none;fill-rule:nonzero;fill:rgb(91.764706%,38.039216%,3.529412%);fill-opacity:1;" d="M 45.863281 63.09375 L 20.273438 63.09375 C 19.214844 63.09375 18.355469 62.234375 18.351562 61.171875 L 18.351562 34.277344 C 18.355469 33.21875 19.214844 32.359375 20.273438 32.355469 L 21.269531 32.355469 C 22.332031 32.355469 23.195312 31.496094 23.195312 30.4375 C 23.195312 29.90625 22.976562 29.425781 22.628906 29.078125 C 22.28125 28.730469 21.800781 28.515625 21.269531 28.515625 L 20.273438 28.515625 C 17.089844 28.519531 14.507812 31.097656 14.507812 34.277344 L 14.507812 61.171875 C 14.507812 64.351562 17.089844 66.929688 20.273438 66.933594 L 45.863281 66.933594 C 46.925781 66.933594 47.785156 66.074219 47.785156 65.015625 C 47.785156 64.484375 47.570312 64.003906 47.222656 63.65625 C 46.875 63.308594 46.394531 63.09375 45.863281 63.09375 Z M 45.863281 63.09375 "/>
<path style=" stroke:none;fill-rule:nonzero;fill:rgb(91.764706%,38.039216%,3.529412%);fill-opacity:1;" d="M 80.503906 32.554688 C 78.726562 31.59375 76.5625 31.710938 74.894531 32.847656 L 69.445312 36.5 L 65.988281 38.816406 L 65.988281 36.652344 L 59.847656 36.652344 L 59.839844 33.476562 C 59.449219 30.675781 57.042969 28.519531 54.128906 28.519531 L 28.492188 28.519531 C 27.429688 28.519531 26.570312 29.378906 26.570312 30.4375 C 26.570312 30.96875 26.785156 31.449219 27.132812 31.796875 C 27.480469 32.144531 27.960938 32.359375 28.492188 32.359375 L 54.128906 32.359375 C 55.191406 32.359375 56.050781 33.21875 56.054688 34.28125 L 56.054688 61.175781 C 56.050781 62.234375 55.191406 63.09375 54.128906 63.097656 L 52.84375 63.097656 C 51.78125 63.097656 50.921875 63.957031 50.921875 65.015625 C 50.921875 65.546875 51.136719 66.027344 51.484375 66.375 C 51.832031 66.722656 52.3125 66.9375 52.84375 66.9375 L 54.128906 66.9375 C 57.289062 66.933594 59.855469 64.394531 59.894531 61.25 L 59.890625 58.804688 L 65.988281 58.804688 L 65.988281 56.632812 L 69.445312 58.949219 L 74.894531 62.605469 C 76.558594 63.75 78.730469 63.859375 80.503906 62.894531 C 82.523438 61.773438 83.761719 59.632812 83.71875 57.324219 L 83.71875 38.128906 C 83.761719 35.820312 82.523438 33.675781 80.503906 32.554688 Z M 63.335938 56.152344 L 61.167969 56.152344 L 61.167969 39.300781 L 63.335938 39.300781 Z M 78.691406 59.503906 C 78.171875 59.796875 77.523438 59.761719 77.039062 59.410156 L 69.445312 54.320312 L 69 54.023438 L 68.921875 53.972656 L 65.988281 52.003906 L 65.988281 43.441406 L 69 41.421875 L 69.445312 41.125 L 77.035156 36.039062 C 77.527344 35.691406 78.171875 35.65625 78.691406 35.945312 C 79.460938 36.398438 79.910156 37.238281 79.871094 38.125 L 79.871094 57.320312 C 79.914062 58.207031 79.460938 59.050781 78.691406 59.503906 Z M 78.691406 59.503906 "/>
<path style=" stroke:none;fill-rule:nonzero;fill:rgb(91.764706%,38.039216%,3.529412%);fill-opacity:1;" d="M 27.085938 37.476562 C 26.695312 35.824219 25.039062 34.804688 23.390625 35.191406 C 21.738281 35.582031 20.714844 37.234375 21.105469 38.886719 C 21.492188 40.535156 23.148438 41.554688 24.800781 41.167969 C 26.453125 40.777344 27.476562 39.125 27.085938 37.476562 Z M 27.085938 37.476562 "/>
<path style=" stroke:none;fill-rule:nonzero;fill:rgb(1.176471%,25.490198%,33.725491%);fill-opacity:1;" d="M 10.230469 114.449219 C 9.726562 114.449219 9.28125 114.375 8.898438 114.230469 C 8.515625 114.085938 8.191406 113.878906 7.929688 113.609375 C 7.667969 113.34375 7.46875 113.015625 7.332031 112.636719 C 7.195312 112.253906 7.128906 111.832031 7.128906 111.363281 L 7.128906 105.902344 L 6.230469 105.902344 C 6.066406 105.902344 5.925781 105.851562 5.8125 105.742188 C 5.695312 105.636719 5.640625 105.484375 5.640625 105.28125 L 5.640625 104.046875 L 7.320312 103.722656 L 7.941406 101.144531 C 8.023438 100.820312 8.253906 100.65625 8.636719 100.65625 L 10.289062 100.65625 L 10.289062 103.742188 L 12.859375 103.742188 L 12.859375 105.902344 L 10.289062 105.902344 L 10.289062 111.148438 C 10.289062 111.394531 10.347656 111.59375 10.46875 111.753906 C 10.585938 111.914062 10.757812 111.992188 10.980469 111.992188 C 11.097656 111.992188 11.195312 111.980469 11.273438 111.960938 C 11.351562 111.933594 11.421875 111.910156 11.476562 111.878906 C 11.535156 111.847656 11.589844 111.820312 11.640625 111.796875 C 11.691406 111.773438 11.75 111.761719 11.816406 111.761719 C 11.914062 111.761719 11.988281 111.785156 12.046875 111.828125 C 12.105469 111.871094 12.164062 111.941406 12.226562 112.035156 L 13.183594 113.535156 C 12.777344 113.839844 12.316406 114.070312 11.808594 114.222656 C 11.296875 114.375 10.773438 114.449219 10.226562 114.449219 Z M 10.230469 114.449219 "/>
<path style=" stroke:none;fill-rule:nonzero;fill:rgb(1.176471%,25.490198%,33.725491%);fill-opacity:1;" d="M 19.207031 103.5625 C 19.910156 103.5625 20.546875 103.671875 21.128906 103.886719 C 21.710938 104.105469 22.210938 104.421875 22.628906 104.832031 C 23.046875 105.246094 23.375 105.753906 23.609375 106.355469 C 23.84375 106.957031 23.960938 107.640625 23.960938 108.398438 C 23.960938 108.636719 23.949219 108.832031 23.929688 108.980469 C 23.910156 109.128906 23.871094 109.25 23.816406 109.335938 C 23.761719 109.421875 23.691406 109.484375 23.597656 109.519531 C 23.503906 109.554688 23.386719 109.570312 23.246094 109.570312 L 17.144531 109.570312 C 17.246094 110.453125 17.515625 111.09375 17.949219 111.492188 C 18.386719 111.886719 18.949219 112.085938 19.632812 112.085938 C 20 112.085938 20.316406 112.042969 20.582031 111.957031 C 20.847656 111.867188 21.082031 111.769531 21.289062 111.660156 C 21.5 111.550781 21.6875 111.453125 21.863281 111.363281 C 22.035156 111.277344 22.214844 111.230469 22.410156 111.230469 C 22.660156 111.230469 22.851562 111.324219 22.980469 111.507812 L 23.898438 112.636719 C 23.570312 113.011719 23.21875 113.316406 22.839844 113.550781 C 22.464844 113.785156 22.074219 113.96875 21.679688 114.101562 C 21.28125 114.230469 20.882812 114.324219 20.484375 114.375 C 20.085938 114.425781 19.707031 114.449219 19.347656 114.449219 C 18.605469 114.449219 17.910156 114.328125 17.261719 114.089844 C 16.613281 113.847656 16.042969 113.492188 15.558594 113.015625 C 15.070312 112.539062 14.6875 111.945312 14.40625 111.242188 C 14.125 110.535156 13.980469 109.714844 13.980469 108.777344 C 13.980469 108.070312 14.101562 107.402344 14.34375 106.769531 C 14.585938 106.140625 14.933594 105.585938 15.386719 105.109375 C 15.835938 104.632812 16.382812 104.257812 17.027344 103.976562 C 17.667969 103.699219 18.394531 103.5625 19.203125 103.5625 Z M 19.269531 105.742188 C 18.664062 105.742188 18.1875 105.914062 17.851562 106.253906 C 17.511719 106.597656 17.285156 107.09375 17.175781 107.738281 L 21.125 107.738281 C 21.125 107.488281 21.09375 107.242188 21.03125 107.003906 C 20.964844 106.769531 20.859375 106.554688 20.714844 106.367188 C 20.566406 106.179688 20.375 106.03125 20.140625 105.914062 C 19.898438 105.800781 19.609375 105.742188 19.273438 105.742188 Z M 19.269531 105.742188 "/>
<path style=" stroke:none;fill-rule:nonzero;fill:rgb(1.176471%,25.490198%,33.725491%);fill-opacity:1;" d="M 29.039062 99.039062 L 29.039062 114.285156 L 25.878906 114.285156 L 25.878906 99.039062 Z M 29.039062 99.039062 "/>
<path style=" stroke:none;fill-rule:nonzero;fill:rgb(1.176471%,25.490198%,33.725491%);fill-opacity:1;" d="M 36.117188 103.5625 C 36.820312 103.5625 37.460938 103.671875 38.042969 103.886719 C 38.625 104.105469 39.125 104.421875 39.542969 104.832031 C 39.960938 105.246094 40.285156 105.753906 40.519531 106.355469 C 40.753906 106.957031 40.871094 107.640625 40.871094 108.398438 C 40.871094 108.636719 40.863281 108.832031 40.84375 108.980469 C 40.820312 109.128906 40.785156 109.25 40.730469 109.335938 C 40.675781 109.421875 40.605469 109.484375 40.511719 109.519531 C 40.417969 109.554688 40.300781 109.570312 40.15625 109.570312 L 34.058594 109.570312 C 34.160156 110.453125 34.429688 111.09375 34.863281 111.492188 C 35.296875 111.886719 35.859375 112.085938 36.546875 112.085938 C 36.914062 112.085938 37.226562 112.042969 37.492188 111.957031 C 37.757812 111.867188 37.996094 111.769531 38.203125 111.660156 C 38.410156 111.550781 38.601562 111.453125 38.773438 111.363281 C 38.949219 111.277344 39.128906 111.230469 39.320312 111.230469 C 39.570312 111.230469 39.761719 111.324219 39.890625 111.507812 L 40.808594 112.636719 C 40.484375 113.011719 40.128906 113.316406 39.753906 113.550781 C 39.375 113.785156 38.988281 113.96875 38.589844 114.101562 C 38.191406 114.230469 37.796875 114.324219 37.398438 114.375 C 37 114.425781 36.621094 114.449219 36.261719 114.449219 C 35.515625 114.449219 34.820312 114.328125 34.171875 114.089844 C 33.523438 113.847656 32.957031 113.492188 32.46875 113.015625 C 31.984375 112.539062 31.601562 111.945312 31.320312 111.242188 C 31.035156 110.535156 30.894531 109.714844 30.894531 108.777344 C 30.894531 108.070312 31.015625 107.402344 31.257812 106.769531 C 31.496094 106.140625 31.84375 105.585938 32.296875 105.109375 C 32.75 104.632812 33.296875 104.257812 33.9375 103.976562 C 34.582031 103.699219 35.308594 103.5625 36.117188 103.5625 Z M 36.179688 105.742188 C 35.574219 105.742188 35.101562 105.914062 34.761719 106.253906 C 34.421875 106.597656 34.199219 107.09375 34.089844 107.738281 L 38.039062 107.738281 C 38.039062 107.488281 38.003906 107.242188 37.941406 107.003906 C 37.878906 106.769531 37.773438 106.554688 37.625 106.367188 C 37.480469 106.179688 37.289062 106.03125 37.050781 105.914062 C 36.8125 105.800781 36.523438 105.742188 36.183594 105.742188 Z M 36.179688 105.742188 "/>
<path style=" stroke:none;fill-rule:nonzero;fill:rgb(1.176471%,25.490198%,33.725491%);fill-opacity:1;" d="M 46.421875 103.539062 C 46.871094 103.539062 47.292969 103.585938 47.691406 103.671875 C 48.089844 103.761719 48.460938 103.886719 48.800781 104.050781 L 51.992188 104.050781 L 51.992188 105.199219 C 51.992188 105.378906 51.945312 105.515625 51.847656 105.617188 C 51.75 105.71875 51.578125 105.796875 51.339844 105.851562 L 50.566406 106.023438 C 50.660156 106.332031 50.707031 106.644531 50.707031 106.972656 C 50.707031 107.5 50.597656 107.976562 50.375 108.398438 C 50.15625 108.820312 49.851562 109.175781 49.46875 109.472656 C 49.082031 109.769531 48.628906 109.996094 48.105469 110.15625 C 47.582031 110.3125 47.023438 110.394531 46.425781 110.394531 C 46.089844 110.394531 45.777344 110.375 45.484375 110.335938 C 45.253906 110.46875 45.140625 110.628906 45.140625 110.804688 C 45.140625 110.984375 45.234375 111.113281 45.417969 111.195312 C 45.605469 111.273438 45.851562 111.324219 46.160156 111.359375 C 46.464844 111.390625 46.816406 111.40625 47.210938 111.40625 C 47.601562 111.40625 48.003906 111.421875 48.414062 111.460938 C 48.820312 111.5 49.222656 111.5625 49.617188 111.652344 C 50.007812 111.738281 50.359375 111.882812 50.664062 112.082031 C 50.972656 112.277344 51.21875 112.542969 51.40625 112.875 C 51.59375 113.203125 51.6875 113.625 51.6875 114.136719 C 51.6875 114.613281 51.570312 115.078125 51.339844 115.535156 C 51.109375 115.992188 50.769531 116.398438 50.320312 116.75 C 49.871094 117.105469 49.320312 117.390625 48.667969 117.605469 C 48.015625 117.820312 47.269531 117.925781 46.425781 117.925781 C 45.582031 117.925781 44.878906 117.847656 44.277344 117.691406 C 43.675781 117.535156 43.175781 117.328125 42.78125 117.074219 C 42.382812 116.820312 42.089844 116.527344 41.898438 116.191406 C 41.707031 115.859375 41.609375 115.511719 41.609375 115.152344 C 41.609375 114.683594 41.753906 114.285156 42.039062 113.964844 C 42.324219 113.640625 42.714844 113.390625 43.210938 113.207031 C 42.972656 113.050781 42.785156 112.847656 42.640625 112.605469 C 42.5 112.359375 42.425781 112.054688 42.425781 111.679688 C 42.425781 111.523438 42.453125 111.359375 42.507812 111.183594 C 42.5625 111.011719 42.648438 110.84375 42.761719 110.679688 C 42.878906 110.515625 43.023438 110.363281 43.203125 110.210938 C 43.378906 110.0625 43.589844 109.929688 43.835938 109.816406 C 43.285156 109.523438 42.847656 109.132812 42.53125 108.652344 C 42.214844 108.171875 42.058594 107.609375 42.058594 106.972656 C 42.058594 106.445312 42.167969 105.96875 42.394531 105.542969 C 42.617188 105.117188 42.925781 104.757812 43.316406 104.460938 C 43.710938 104.167969 44.171875 103.9375 44.699219 103.78125 C 45.230469 103.621094 45.804688 103.539062 46.425781 103.539062 Z M 48.765625 114.652344 C 48.765625 114.476562 48.714844 114.339844 48.609375 114.234375 C 48.503906 114.132812 48.359375 114.046875 48.179688 113.984375 C 48 113.921875 47.789062 113.878906 47.546875 113.847656 C 47.304688 113.824219 47.046875 113.808594 46.765625 113.808594 L 45.898438 113.808594 C 45.601562 113.808594 45.304688 113.78125 45.011719 113.722656 C 44.816406 113.855469 44.652344 114.007812 44.527344 114.175781 C 44.402344 114.34375 44.335938 114.53125 44.335938 114.742188 C 44.335938 114.890625 44.371094 115.027344 44.433594 115.148438 C 44.5 115.269531 44.609375 115.375 44.777344 115.464844 C 44.9375 115.550781 45.15625 115.621094 45.433594 115.675781 C 45.710938 115.726562 46.058594 115.75 46.480469 115.75 C 46.9375 115.75 47.3125 115.722656 47.601562 115.667969 C 47.894531 115.613281 48.128906 115.535156 48.300781 115.441406 C 48.476562 115.34375 48.597656 115.226562 48.664062 115.089844 C 48.734375 114.957031 48.765625 114.808594 48.765625 114.648438 Z M 46.421875 108.449219 C 46.945312 108.449219 47.324219 108.320312 47.558594 108.058594 C 47.792969 107.796875 47.914062 107.460938 47.914062 107.046875 C 47.914062 106.628906 47.792969 106.28125 47.558594 106.035156 C 47.324219 105.792969 46.945312 105.671875 46.421875 105.671875 C 45.898438 105.671875 45.519531 105.792969 45.285156 106.035156 C 45.050781 106.28125 44.929688 106.617188 44.929688 107.046875 C 44.929688 107.25 44.960938 107.4375 45.019531 107.605469 C 45.074219 107.777344 45.164062 107.921875 45.289062 108.050781 C 45.414062 108.175781 45.566406 108.273438 45.753906 108.34375 C 45.941406 108.414062 46.164062 108.449219 46.425781 108.449219 Z M 46.421875 108.449219 "/>
<path style=" stroke:none;fill-rule:nonzero;fill:rgb(1.176471%,25.490198%,33.725491%);fill-opacity:1;" d="M 53.359375 114.285156 L 53.359375 103.722656 L 55.234375 103.722656 C 55.390625 103.722656 55.523438 103.738281 55.628906 103.765625 C 55.734375 103.789062 55.820312 103.832031 55.894531 103.890625 C 55.964844 103.949219 56.019531 104.023438 56.054688 104.117188 C 56.09375 104.214844 56.125 104.328125 56.152344 104.464844 L 56.328125 105.453125 C 56.714844 104.855469 57.148438 104.382812 57.632812 104.035156 C 58.117188 103.6875 58.640625 103.515625 59.210938 103.515625 C 59.695312 103.515625 60.082031 103.632812 60.375 103.863281 L 59.96875 106.183594 C 59.941406 106.328125 59.886719 106.425781 59.804688 106.484375 C 59.722656 106.542969 59.613281 106.570312 59.476562 106.570312 C 59.363281 106.570312 59.226562 106.554688 59.070312 106.527344 C 58.914062 106.496094 58.71875 106.480469 58.480469 106.480469 C 57.648438 106.480469 56.996094 106.921875 56.519531 107.804688 L 56.519531 114.28125 L 53.359375 114.28125 Z M 53.359375 114.285156 "/>
<path style=" stroke:none;fill-rule:nonzero;fill:rgb(1.176471%,25.490198%,33.725491%);fill-opacity:1;" d="M 66.496094 103.5625 C 67.300781 103.5625 68.03125 103.6875 68.691406 103.9375 C 69.347656 104.1875 69.914062 104.546875 70.386719 105.015625 C 70.863281 105.484375 71.230469 106.054688 71.488281 106.722656 C 71.75 107.394531 71.882812 108.144531 71.882812 108.980469 C 71.882812 109.816406 71.753906 110.582031 71.488281 111.257812 C 71.230469 111.933594 70.863281 112.507812 70.386719 112.976562 C 69.914062 113.449219 69.347656 113.8125 68.691406 114.066406 C 68.03125 114.320312 67.300781 114.449219 66.496094 114.449219 C 65.695312 114.449219 64.953125 114.320312 64.289062 114.066406 C 63.625 113.8125 63.054688 113.449219 62.574219 112.976562 C 62.097656 112.503906 61.726562 111.933594 61.464844 111.257812 C 61.203125 110.582031 61.070312 109.820312 61.070312 108.980469 C 61.070312 108.140625 61.203125 107.394531 61.464844 106.722656 C 61.726562 106.054688 62.097656 105.484375 62.574219 105.015625 C 63.054688 104.546875 63.625 104.1875 64.289062 103.9375 C 64.953125 103.6875 65.6875 103.5625 66.496094 103.5625 Z M 66.496094 112.109375 C 67.226562 112.109375 67.757812 111.851562 68.105469 111.339844 C 68.445312 110.828125 68.621094 110.046875 68.621094 109.003906 C 68.621094 107.957031 68.449219 107.179688 68.105469 106.667969 C 67.761719 106.160156 67.226562 105.90625 66.496094 105.90625 C 65.769531 105.90625 65.203125 106.160156 64.855469 106.667969 C 64.507812 107.175781 64.335938 107.957031 64.335938 109.003906 C 64.335938 110.050781 64.507812 110.828125 64.855469 111.339844 C 65.203125 111.851562 65.75 112.109375 66.496094 112.109375 Z M 66.496094 112.109375 "/>
<path style=" stroke:none;fill-rule:nonzero;fill:rgb(1.176471%,25.490198%,33.725491%);fill-opacity:1;" d="M 80.085938 106.035156 C 80.003906 106.164062 79.917969 106.253906 79.828125 106.308594 C 79.734375 106.363281 79.617188 106.390625 79.472656 106.390625 C 79.324219 106.390625 79.175781 106.359375 79.023438 106.292969 C 78.875 106.226562 78.714844 106.160156 78.539062 106.085938 C 78.367188 106.011719 78.171875 105.941406 77.953125 105.875 C 77.734375 105.8125 77.488281 105.78125 77.207031 105.78125 C 76.804688 105.78125 76.5 105.855469 76.285156 106.007812 C 76.070312 106.160156 75.964844 106.371094 75.964844 106.644531 C 75.964844 106.84375 76.035156 107.007812 76.171875 107.132812 C 76.3125 107.265625 76.496094 107.378906 76.730469 107.476562 C 76.960938 107.574219 77.222656 107.671875 77.515625 107.757812 C 77.804688 107.84375 78.105469 107.945312 78.410156 108.054688 C 78.71875 108.160156 79.015625 108.289062 79.308594 108.433594 C 79.601562 108.582031 79.863281 108.761719 80.09375 108.972656 C 80.324219 109.1875 80.511719 109.449219 80.652344 109.753906 C 80.789062 110.058594 80.859375 110.425781 80.859375 110.851562 C 80.859375 111.375 80.765625 111.859375 80.574219 112.300781 C 80.386719 112.742188 80.101562 113.121094 79.722656 113.441406 C 79.34375 113.757812 78.878906 114.007812 78.324219 114.183594 C 77.769531 114.359375 77.132812 114.449219 76.414062 114.449219 C 76.050781 114.449219 75.691406 114.414062 75.332031 114.347656 C 74.972656 114.277344 74.621094 114.1875 74.285156 114.070312 C 73.949219 113.957031 73.636719 113.820312 73.351562 113.65625 C 73.066406 113.5 72.820312 113.324219 72.617188 113.144531 L 73.351562 111.980469 C 73.4375 111.84375 73.546875 111.738281 73.667969 111.660156 C 73.789062 111.585938 73.949219 111.542969 74.148438 111.542969 C 74.332031 111.542969 74.496094 111.585938 74.644531 111.664062 C 74.789062 111.746094 74.945312 111.835938 75.117188 111.929688 C 75.289062 112.023438 75.488281 112.113281 75.714844 112.195312 C 75.945312 112.277344 76.230469 112.316406 76.578125 112.316406 C 76.824219 112.316406 77.03125 112.292969 77.199219 112.242188 C 77.371094 112.191406 77.507812 112.121094 77.609375 112.03125 C 77.710938 111.945312 77.785156 111.84375 77.832031 111.738281 C 77.878906 111.628906 77.902344 111.515625 77.902344 111.402344 C 77.902344 111.191406 77.832031 111.019531 77.6875 110.882812 C 77.546875 110.746094 77.359375 110.628906 77.128906 110.53125 C 76.898438 110.433594 76.636719 110.34375 76.335938 110.257812 C 76.042969 110.171875 75.738281 110.074219 75.433594 109.96875 C 75.128906 109.859375 74.824219 109.726562 74.53125 109.574219 C 74.234375 109.421875 73.972656 109.226562 73.738281 108.992188 C 73.507812 108.761719 73.320312 108.472656 73.179688 108.132812 C 73.035156 107.792969 72.964844 107.382812 72.964844 106.902344 C 72.964844 106.453125 73.050781 106.027344 73.226562 105.621094 C 73.398438 105.21875 73.660156 104.863281 74.007812 104.554688 C 74.351562 104.25 74.789062 104.007812 75.3125 103.828125 C 75.835938 103.648438 76.449219 103.554688 77.148438 103.554688 C 77.53125 103.554688 77.898438 103.589844 78.257812 103.660156 C 78.613281 103.726562 78.949219 103.820312 79.261719 103.945312 C 79.574219 104.066406 79.859375 104.210938 80.117188 104.378906 C 80.378906 104.542969 80.605469 104.726562 80.800781 104.921875 L 80.085938 106.03125 Z M 80.085938 106.035156 "/>
<path style=" stroke:none;fill-rule:nonzero;fill:rgb(1.176471%,25.490198%,33.725491%);fill-opacity:1;" d="M 86.226562 100.828125 C 86.226562 101.078125 86.175781 101.316406 86.074219 101.535156 C 85.972656 101.757812 85.832031 101.953125 85.65625 102.117188 C 85.476562 102.285156 85.273438 102.417969 85.039062 102.515625 C 84.800781 102.613281 84.550781 102.660156 84.285156 102.660156 C 84.023438 102.660156 83.785156 102.613281 83.5625 102.515625 C 83.339844 102.417969 83.136719 102.28125 82.964844 102.117188 C 82.792969 101.949219 82.65625 101.757812 82.558594 101.535156 C 82.460938 101.316406 82.410156 101.078125 82.410156 100.828125 C 82.410156 100.578125 82.457031 100.332031 82.558594 100.105469 C 82.65625 99.882812 82.792969 99.683594 82.964844 99.515625 C 83.136719 99.34375 83.339844 99.210938 83.5625 99.117188 C 83.785156 99.023438 84.027344 98.976562 84.285156 98.976562 C 84.546875 98.976562 84.800781 99.023438 85.039062 99.117188 C 85.273438 99.214844 85.476562 99.347656 85.65625 99.515625 C 85.832031 99.683594 85.972656 99.882812 86.074219 100.105469 C 86.175781 100.332031 86.226562 100.570312 86.226562 100.828125 Z M 85.859375 103.722656 L 85.859375 114.285156 L 82.695312 114.285156 L 82.695312 103.722656 Z M 85.859375 103.722656 "/>
<path style=" stroke:none;fill-rule:nonzero;fill:rgb(1.176471%,25.490198%,33.725491%);fill-opacity:1;" d="M 91.570312 99.039062 L 91.570312 107.585938 L 92.039062 107.585938 C 92.238281 107.585938 92.390625 107.558594 92.496094 107.503906 C 92.601562 107.449219 92.699219 107.351562 92.796875 107.207031 L 94.796875 104.234375 C 94.910156 104.054688 95.046875 103.925781 95.210938 103.84375 C 95.367188 103.765625 95.574219 103.722656 95.816406 103.722656 L 98.714844 103.722656 L 95.984375 107.484375 C 95.851562 107.660156 95.710938 107.816406 95.558594 107.953125 C 95.40625 108.085938 95.238281 108.210938 95.066406 108.316406 C 95.371094 108.550781 95.636719 108.855469 95.859375 109.234375 L 98.839844 114.285156 L 95.984375 114.285156 C 95.742188 114.285156 95.539062 114.25 95.363281 114.167969 C 95.191406 114.089844 95.050781 113.953125 94.941406 113.753906 L 92.941406 110.015625 C 92.847656 109.84375 92.746094 109.734375 92.644531 109.683594 C 92.542969 109.632812 92.390625 109.609375 92.1875 109.609375 L 91.574219 109.609375 L 91.574219 114.285156 L 88.414062 114.285156 L 88.414062 99.035156 L 91.574219 99.035156 Z M 91.570312 99.039062 "/>
<path style=" stroke:none;fill-rule:nonzero;fill:rgb(100%,100%,100%);fill-opacity:1;" d="M 10.828125 113.863281 C 10.324219 113.863281 9.878906 113.789062 9.496094 113.644531 C 9.113281 113.5 8.789062 113.292969 8.527344 113.023438 C 8.265625 112.753906 8.066406 112.429688 7.929688 112.050781 C 7.792969 111.667969 7.726562 111.246094 7.726562 110.777344 L 7.726562 105.316406 L 6.828125 105.316406 C 6.664062 105.316406 6.523438 105.261719 6.410156 105.15625 C 6.292969 105.050781 6.238281 104.898438 6.238281 104.691406 L 6.238281 103.460938 L 7.917969 103.136719 L 8.539062 100.558594 C 8.621094 100.234375 8.851562 100.070312 9.234375 100.070312 L 10.886719 100.070312 L 10.886719 103.15625 L 13.457031 103.15625 L 13.457031 105.316406 L 10.886719 105.316406 L 10.886719 110.5625 C 10.886719 110.804688 10.945312 111.007812 11.066406 111.167969 C 11.183594 111.324219 11.355469 111.40625 11.578125 111.40625 C 11.695312 111.40625 11.792969 111.394531 11.871094 111.371094 C 11.949219 111.347656 12.019531 111.320312 12.074219 111.292969 C 12.132812 111.261719 12.1875 111.234375 12.238281 111.210938 C 12.289062 111.1875 12.347656 111.175781 12.414062 111.175781 C 12.511719 111.175781 12.585938 111.199219 12.644531 111.242188 C 12.703125 111.285156 12.761719 111.355469 12.824219 111.449219 L 13.78125 112.945312 C 13.375 113.253906 12.914062 113.484375 12.40625 113.636719 C 11.894531 113.789062 11.371094 113.863281 10.824219 113.863281 Z M 10.828125 113.863281 "/>
<path style=" stroke:none;fill-rule:nonzero;fill:rgb(100%,100%,100%);fill-opacity:1;" d="M 19.804688 102.972656 C 20.503906 102.972656 21.144531 103.085938 21.726562 103.300781 C 22.308594 103.519531 22.808594 103.832031 23.226562 104.246094 C 23.644531 104.660156 23.96875 105.167969 24.207031 105.769531 C 24.441406 106.371094 24.558594 107.054688 24.558594 107.8125 C 24.558594 108.050781 24.546875 108.246094 24.527344 108.394531 C 24.507812 108.542969 24.46875 108.660156 24.414062 108.75 C 24.359375 108.835938 24.289062 108.898438 24.195312 108.933594 C 24.101562 108.96875 23.984375 108.984375 23.84375 108.984375 L 17.742188 108.984375 C 17.84375 109.867188 18.113281 110.507812 18.546875 110.90625 C 18.980469 111.300781 19.546875 111.5 20.230469 111.5 C 20.597656 111.5 20.914062 111.457031 21.179688 111.367188 C 21.445312 111.28125 21.679688 111.183594 21.886719 111.074219 C 22.097656 110.964844 22.285156 110.867188 22.460938 110.777344 C 22.632812 110.691406 22.8125 110.644531 23.007812 110.644531 C 23.257812 110.644531 23.449219 110.738281 23.578125 110.921875 L 24.496094 112.050781 C 24.167969 112.421875 23.816406 112.730469 23.4375 112.964844 C 23.0625 113.199219 22.671875 113.378906 22.277344 113.511719 C 21.878906 113.644531 21.480469 113.738281 21.082031 113.789062 C 20.683594 113.839844 20.304688 113.863281 19.945312 113.863281 C 19.203125 113.863281 18.507812 113.742188 17.859375 113.503906 C 17.210938 113.261719 16.640625 112.902344 16.15625 112.425781 C 15.667969 111.953125 15.285156 111.359375 15.003906 110.65625 C 14.722656 109.949219 14.578125 109.128906 14.578125 108.191406 C 14.578125 107.484375 14.699219 106.816406 14.941406 106.183594 C 15.183594 105.550781 15.53125 105 15.984375 104.523438 C 16.433594 104.046875 16.980469 103.671875 17.625 103.390625 C 18.265625 103.113281 18.992188 102.972656 19.800781 102.972656 Z M 19.867188 105.15625 C 19.257812 105.15625 18.785156 105.328125 18.449219 105.667969 C 18.109375 106.011719 17.882812 106.503906 17.773438 107.152344 L 21.722656 107.152344 C 21.722656 106.902344 21.691406 106.65625 21.628906 106.417969 C 21.5625 106.179688 21.457031 105.96875 21.3125 105.78125 C 21.164062 105.59375 20.972656 105.445312 20.734375 105.328125 C 20.496094 105.214844 20.207031 105.15625 19.871094 105.15625 Z M 19.867188 105.15625 "/>
<path style=" stroke:none;fill-rule:nonzero;fill:rgb(100%,100%,100%);fill-opacity:1;" d="M 29.636719 98.449219 L 29.636719 113.699219 L 26.476562 113.699219 L 26.476562 98.449219 Z M 29.636719 98.449219 "/>
<path style=" stroke:none;fill-rule:nonzero;fill:rgb(100%,100%,100%);fill-opacity:1;" d="M 36.714844 102.972656 C 37.417969 102.972656 38.058594 103.085938 38.640625 103.300781 C 39.222656 103.519531 39.71875 103.832031 40.140625 104.246094 C 40.558594 104.660156 40.882812 105.167969 41.117188 105.769531 C 41.351562 106.371094 41.46875 107.054688 41.46875 107.8125 C 41.46875 108.050781 41.460938 108.246094 41.441406 108.394531 C 41.417969 108.542969 41.382812 108.660156 41.328125 108.75 C 41.273438 108.835938 41.203125 108.898438 41.105469 108.933594 C 41.015625 108.96875 40.898438 108.984375 40.753906 108.984375 L 34.65625 108.984375 C 34.757812 109.867188 35.027344 110.507812 35.460938 110.90625 C 35.894531 111.300781 36.457031 111.5 37.144531 111.5 C 37.511719 111.5 37.824219 111.457031 38.089844 111.367188 C 38.355469 111.28125 38.59375 111.183594 38.800781 111.074219 C 39.007812 110.964844 39.199219 110.867188 39.371094 110.777344 C 39.546875 110.691406 39.726562 110.644531 39.917969 110.644531 C 40.167969 110.644531 40.359375 110.738281 40.488281 110.921875 L 41.40625 112.050781 C 41.082031 112.421875 40.726562 112.730469 40.351562 112.964844 C 39.972656 113.199219 39.585938 113.378906 39.1875 113.511719 C 38.789062 113.644531 38.394531 113.738281 37.996094 113.789062 C 37.597656 113.839844 37.21875 113.863281 36.855469 113.863281 C 36.113281 113.863281 35.417969 113.742188 34.769531 113.503906 C 34.121094 113.261719 33.554688 112.902344 33.066406 112.425781 C 32.582031 111.953125 32.199219 111.359375 31.914062 110.65625 C 31.632812 109.949219 31.492188 109.128906 31.492188 108.191406 C 31.492188 107.484375 31.613281 106.816406 31.855469 106.183594 C 32.09375 105.550781 32.441406 105 32.894531 104.523438 C 33.347656 104.046875 33.894531 103.671875 34.535156 103.390625 C 35.179688 103.113281 35.90625 102.972656 36.714844 102.972656 Z M 36.777344 105.15625 C 36.171875 105.15625 35.699219 105.328125 35.359375 105.667969 C 35.019531 106.011719 34.796875 106.503906 34.6875 107.152344 L 38.636719 107.152344 C 38.636719 106.902344 38.601562 106.65625 38.539062 106.417969 C 38.472656 106.179688 38.371094 105.96875 38.222656 105.78125 C 38.078125 105.59375 37.886719 105.445312 37.648438 105.328125 C 37.410156 105.214844 37.121094 105.15625 36.78125 105.15625 Z M 36.777344 105.15625 "/>
<path style=" stroke:none;fill-rule:nonzero;fill:rgb(100%,100%,100%);fill-opacity:1;" d="M 47.019531 102.953125 C 47.46875 102.953125 47.890625 103 48.289062 103.085938 C 48.6875 103.171875 49.058594 103.300781 49.398438 103.460938 L 52.589844 103.460938 L 52.589844 104.613281 C 52.589844 104.789062 52.542969 104.929688 52.445312 105.03125 C 52.347656 105.132812 52.175781 105.210938 51.9375 105.265625 L 51.164062 105.4375 C 51.257812 105.742188 51.304688 106.058594 51.304688 106.386719 C 51.304688 106.914062 51.195312 107.390625 50.972656 107.8125 C 50.753906 108.230469 50.449219 108.589844 50.066406 108.886719 C 49.679688 109.179688 49.226562 109.410156 48.703125 109.566406 C 48.179688 109.726562 47.617188 109.808594 47.023438 109.808594 C 46.6875 109.808594 46.375 109.789062 46.082031 109.746094 C 45.851562 109.882812 45.738281 110.039062 45.738281 110.21875 C 45.738281 110.398438 45.832031 110.527344 46.015625 110.605469 C 46.203125 110.6875 46.449219 110.738281 46.757812 110.773438 C 47.0625 110.800781 47.414062 110.820312 47.808594 110.820312 C 48.199219 110.820312 48.601562 110.835938 49.011719 110.875 C 49.417969 110.914062 49.820312 110.976562 50.214844 111.066406 C 50.605469 111.152344 50.957031 111.296875 51.261719 111.496094 C 51.570312 111.691406 51.816406 111.957031 52.003906 112.289062 C 52.191406 112.617188 52.285156 113.039062 52.285156 113.550781 C 52.285156 114.027344 52.167969 114.492188 51.9375 114.949219 C 51.707031 115.40625 51.367188 115.808594 50.917969 116.164062 C 50.46875 116.519531 49.917969 116.804688 49.265625 117.019531 C 48.613281 117.230469 47.867188 117.339844 47.023438 117.339844 C 46.179688 117.339844 45.476562 117.261719 44.875 117.105469 C 44.273438 116.949219 43.773438 116.742188 43.378906 116.488281 C 42.980469 116.234375 42.6875 115.941406 42.492188 115.605469 C 42.300781 115.273438 42.207031 114.925781 42.207031 114.566406 C 42.207031 114.09375 42.351562 113.699219 42.636719 113.378906 C 42.921875 113.054688 43.3125 112.800781 43.808594 112.617188 C 43.570312 112.464844 43.382812 112.261719 43.238281 112.019531 C 43.097656 111.773438 43.023438 111.464844 43.023438 111.089844 C 43.023438 110.9375 43.050781 110.773438 43.105469 110.597656 C 43.160156 110.425781 43.246094 110.257812 43.359375 110.09375 C 43.476562 109.929688 43.621094 109.777344 43.800781 109.625 C 43.976562 109.476562 44.1875 109.34375 44.429688 109.226562 C 43.882812 108.9375 43.445312 108.546875 43.128906 108.066406 C 42.8125 107.585938 42.65625 107.023438 42.65625 106.386719 C 42.65625 105.859375 42.765625 105.382812 42.992188 104.957031 C 43.214844 104.53125 43.523438 104.171875 43.914062 103.875 C 44.308594 103.582031 44.769531 103.351562 45.296875 103.195312 C 45.828125 103.035156 46.402344 102.953125 47.023438 102.953125 Z M 49.363281 114.066406 C 49.363281 113.890625 49.3125 113.753906 49.207031 113.648438 C 49.101562 113.546875 48.957031 113.460938 48.777344 113.398438 C 48.597656 113.335938 48.386719 113.292969 48.144531 113.261719 C 47.902344 113.234375 47.644531 113.222656 47.363281 113.222656 L 46.496094 113.222656 C 46.199219 113.222656 45.902344 113.195312 45.609375 113.132812 C 45.414062 113.269531 45.25 113.421875 45.125 113.589844 C 45 113.753906 44.933594 113.945312 44.933594 114.15625 C 44.933594 114.304688 44.96875 114.441406 45.03125 114.5625 C 45.097656 114.683594 45.207031 114.789062 45.375 114.878906 C 45.535156 114.964844 45.753906 115.035156 46.03125 115.085938 C 46.308594 115.136719 46.65625 115.164062 47.078125 115.164062 C 47.535156 115.164062 47.910156 115.136719 48.199219 115.082031 C 48.492188 115.027344 48.726562 114.949219 48.898438 114.851562 C 49.074219 114.757812 49.195312 114.640625 49.261719 114.503906 C 49.328125 114.371094 49.363281 114.222656 49.363281 114.0625 Z M 47.019531 107.863281 C 47.542969 107.863281 47.921875 107.734375 48.15625 107.472656 C 48.390625 107.210938 48.511719 106.875 48.511719 106.457031 C 48.511719 106.042969 48.390625 105.695312 48.15625 105.449219 C 47.921875 105.207031 47.542969 105.082031 47.019531 105.082031 C 46.496094 105.082031 46.117188 105.207031 45.882812 105.449219 C 45.648438 105.695312 45.527344 106.03125 45.527344 106.457031 C 45.527344 106.664062 45.558594 106.847656 45.617188 107.019531 C 45.671875 107.191406 45.761719 107.335938 45.886719 107.460938 C 46.011719 107.589844 46.164062 107.6875 46.351562 107.757812 C 46.539062 107.828125 46.761719 107.863281 47.023438 107.863281 Z M 47.019531 107.863281 "/>
<path style=" stroke:none;fill-rule:nonzero;fill:rgb(100%,100%,100%);fill-opacity:1;" d="M 53.957031 113.699219 L 53.957031 103.136719 L 55.832031 103.136719 C 55.988281 103.136719 56.117188 103.152344 56.226562 103.175781 C 56.332031 103.203125 56.417969 103.246094 56.492188 103.304688 C 56.5625 103.359375 56.617188 103.4375 56.652344 103.53125 C 56.691406 103.628906 56.722656 103.742188 56.75 103.878906 L 56.925781 104.867188 C 57.3125 104.269531 57.746094 103.792969 58.230469 103.449219 C 58.714844 103.101562 59.238281 102.929688 59.808594 102.929688 C 60.292969 102.929688 60.679688 103.046875 60.972656 103.277344 L 60.566406 105.597656 C 60.539062 105.738281 60.484375 105.839844 60.402344 105.898438 C 60.320312 105.957031 60.210938 105.984375 60.074219 105.984375 C 59.960938 105.984375 59.824219 105.96875 59.667969 105.9375 C 59.511719 105.910156 59.316406 105.894531 59.074219 105.894531 C 58.246094 105.894531 57.59375 106.335938 57.117188 107.21875 L 57.117188 113.695312 L 53.957031 113.695312 Z M 53.957031 113.699219 "/>
<path style=" stroke:none;fill-rule:nonzero;fill:rgb(100%,100%,100%);fill-opacity:1;" d="M 67.09375 102.972656 C 67.894531 102.972656 68.628906 103.101562 69.289062 103.351562 C 69.945312 103.601562 70.511719 103.960938 70.984375 104.429688 C 71.460938 104.898438 71.828125 105.464844 72.085938 106.136719 C 72.347656 106.808594 72.480469 107.558594 72.480469 108.394531 C 72.480469 109.226562 72.351562 109.992188 72.085938 110.671875 C 71.828125 111.347656 71.460938 111.921875 70.984375 112.390625 C 70.511719 112.863281 69.945312 113.226562 69.289062 113.480469 C 68.628906 113.734375 67.894531 113.863281 67.09375 113.863281 C 66.292969 113.863281 65.550781 113.734375 64.886719 113.480469 C 64.222656 113.226562 63.652344 112.863281 63.171875 112.390625 C 62.695312 111.917969 62.324219 111.347656 62.0625 110.671875 C 61.800781 109.992188 61.667969 109.234375 61.667969 108.394531 C 61.667969 107.550781 61.796875 106.808594 62.0625 106.136719 C 62.324219 105.46875 62.695312 104.898438 63.171875 104.429688 C 63.652344 103.960938 64.222656 103.601562 64.886719 103.351562 C 65.550781 103.101562 66.285156 102.972656 67.09375 102.972656 Z M 67.09375 111.519531 C 67.824219 111.519531 68.355469 111.265625 68.703125 110.753906 C 69.042969 110.242188 69.21875 109.460938 69.21875 108.414062 C 69.21875 107.371094 69.046875 106.59375 68.703125 106.082031 C 68.359375 105.574219 67.824219 105.316406 67.09375 105.316406 C 66.367188 105.316406 65.800781 105.574219 65.453125 106.082031 C 65.105469 106.589844 64.933594 107.367188 64.933594 108.414062 C 64.933594 109.460938 65.105469 110.242188 65.453125 110.753906 C 65.800781 111.265625 66.347656 111.519531 67.09375 111.519531 Z M 67.09375 111.519531 "/>
<path style=" stroke:none;fill-rule:nonzero;fill:rgb(100%,100%,100%);fill-opacity:1;" d="M 80.679688 105.449219 C 80.597656 105.578125 80.511719 105.667969 80.421875 105.722656 C 80.332031 105.777344 80.210938 105.804688 80.070312 105.804688 C 79.921875 105.804688 79.769531 105.773438 79.621094 105.707031 C 79.472656 105.640625 79.3125 105.574219 79.136719 105.5 C 78.960938 105.425781 78.765625 105.355469 78.546875 105.289062 C 78.328125 105.222656 78.082031 105.195312 77.804688 105.195312 C 77.402344 105.195312 77.09375 105.269531 76.882812 105.421875 C 76.667969 105.574219 76.558594 105.785156 76.558594 106.058594 C 76.558594 106.257812 76.628906 106.417969 76.769531 106.546875 C 76.90625 106.679688 77.09375 106.789062 77.324219 106.890625 C 77.554688 106.988281 77.816406 107.082031 78.109375 107.171875 C 78.402344 107.257812 78.699219 107.359375 79.007812 107.464844 C 79.3125 107.574219 79.613281 107.703125 79.902344 107.847656 C 80.195312 107.992188 80.457031 108.171875 80.6875 108.386719 C 80.917969 108.601562 81.105469 108.863281 81.246094 109.167969 C 81.382812 109.472656 81.457031 109.839844 81.457031 110.265625 C 81.457031 110.789062 81.359375 111.269531 81.171875 111.710938 C 80.980469 112.15625 80.695312 112.535156 80.316406 112.851562 C 79.941406 113.171875 79.472656 113.417969 78.921875 113.597656 C 78.367188 113.773438 77.726562 113.863281 77.007812 113.863281 C 76.648438 113.863281 76.285156 113.828125 75.925781 113.757812 C 75.566406 113.691406 75.21875 113.601562 74.882812 113.484375 C 74.542969 113.371094 74.234375 113.230469 73.945312 113.070312 C 73.660156 112.914062 73.417969 112.738281 73.214844 112.558594 L 73.945312 111.394531 C 74.035156 111.257812 74.140625 111.152344 74.261719 111.074219 C 74.386719 110.996094 74.542969 110.957031 74.742188 110.957031 C 74.925781 110.957031 75.089844 110.996094 75.238281 111.078125 C 75.386719 111.160156 75.542969 111.25 75.714844 111.34375 C 75.882812 111.441406 76.082031 111.527344 76.3125 111.609375 C 76.539062 111.691406 76.828125 111.730469 77.171875 111.730469 C 77.417969 111.730469 77.625 111.703125 77.796875 111.65625 C 77.964844 111.605469 78.101562 111.535156 78.203125 111.445312 C 78.304688 111.359375 78.378906 111.257812 78.425781 111.152344 C 78.472656 111.039062 78.5 110.929688 78.5 110.816406 C 78.5 110.605469 78.425781 110.433594 78.285156 110.296875 C 78.140625 110.160156 77.953125 110.042969 77.722656 109.945312 C 77.492188 109.847656 77.230469 109.753906 76.933594 109.671875 C 76.636719 109.585938 76.335938 109.488281 76.03125 109.382812 C 75.722656 109.273438 75.421875 109.140625 75.125 108.988281 C 74.832031 108.835938 74.566406 108.640625 74.335938 108.40625 C 74.105469 108.171875 73.917969 107.886719 73.773438 107.546875 C 73.632812 107.207031 73.558594 106.796875 73.558594 106.3125 C 73.558594 105.867188 73.648438 105.441406 73.820312 105.035156 C 73.992188 104.632812 74.253906 104.273438 74.601562 103.96875 C 74.949219 103.664062 75.386719 103.421875 75.90625 103.242188 C 76.429688 103.0625 77.042969 102.96875 77.746094 102.96875 C 78.125 102.96875 78.492188 103.003906 78.851562 103.070312 C 79.207031 103.140625 79.542969 103.234375 79.855469 103.355469 C 80.167969 103.480469 80.453125 103.625 80.714844 103.789062 C 80.972656 103.957031 81.199219 104.140625 81.398438 104.335938 L 80.683594 105.445312 Z M 80.679688 105.449219 "/>
<path style=" stroke:none;fill-rule:nonzero;fill:rgb(100%,100%,100%);fill-opacity:1;" d="M 86.824219 100.242188 C 86.824219 100.492188 86.773438 100.730469 86.671875 100.949219 C 86.570312 101.171875 86.429688 101.363281 86.253906 101.53125 C 86.074219 101.695312 85.871094 101.828125 85.632812 101.925781 C 85.398438 102.023438 85.148438 102.074219 84.882812 102.074219 C 84.621094 102.074219 84.382812 102.023438 84.160156 101.925781 C 83.9375 101.828125 83.734375 101.695312 83.5625 101.53125 C 83.390625 101.363281 83.253906 101.167969 83.15625 100.949219 C 83.058594 100.730469 83.007812 100.492188 83.007812 100.242188 C 83.007812 99.992188 83.054688 99.742188 83.15625 99.519531 C 83.253906 99.296875 83.390625 99.097656 83.5625 98.929688 C 83.734375 98.757812 83.9375 98.625 84.160156 98.53125 C 84.382812 98.4375 84.625 98.390625 84.882812 98.390625 C 85.144531 98.390625 85.398438 98.4375 85.632812 98.53125 C 85.871094 98.628906 86.074219 98.761719 86.253906 98.929688 C 86.429688 99.097656 86.570312 99.296875 86.671875 99.519531 C 86.773438 99.742188 86.824219 99.984375 86.824219 100.242188 Z M 86.457031 103.136719 L 86.457031 113.699219 L 83.292969 113.699219 L 83.292969 103.136719 Z M 86.457031 103.136719 "/>
<path style=" stroke:none;fill-rule:nonzero;fill:rgb(100%,100%,100%);fill-opacity:1;" d="M 92.167969 98.449219 L 92.167969 107 L 92.636719 107 C 92.832031 107 92.984375 106.972656 93.089844 106.917969 C 93.195312 106.863281 93.296875 106.765625 93.390625 106.621094 L 95.390625 103.644531 C 95.507812 103.46875 95.644531 103.339844 95.804688 103.257812 C 95.964844 103.175781 96.167969 103.136719 96.414062 103.136719 L 99.3125 103.136719 L 96.578125 106.894531 C 96.449219 107.074219 96.308594 107.230469 96.152344 107.363281 C 96 107.5 95.835938 107.625 95.660156 107.730469 C 95.964844 107.964844 96.230469 108.265625 96.457031 108.648438 L 99.433594 113.699219 L 96.578125 113.699219 C 96.339844 113.699219 96.132812 113.660156 95.960938 113.582031 C 95.785156 113.503906 95.644531 113.367188 95.535156 113.167969 L 93.539062 109.429688 C 93.441406 109.257812 93.34375 109.148438 93.242188 109.097656 C 93.140625 109.046875 92.988281 109.023438 92.78125 109.023438 L 92.171875 109.023438 L 92.171875 113.699219 L 89.007812 113.699219 L 89.007812 98.449219 L 92.171875 98.449219 Z M 92.167969 98.449219 "/>
<path style=" stroke:none;fill-rule:nonzero;fill:rgb(91.764706%,38.039216%,3.529412%);fill-opacity:1;" d="M 11.394531 113.539062 C 10.890625 113.539062 10.449219 113.464844 10.0625 113.316406 C 9.679688 113.171875 9.355469 112.964844 9.09375 112.695312 C 8.835938 112.429688 8.632812 112.105469 8.496094 111.722656 C 8.363281 111.34375 8.292969 110.917969 8.292969 110.449219 L 8.292969 104.988281 L 7.398438 104.988281 C 7.234375 104.988281 7.09375 104.9375 6.980469 104.832031 C 6.863281 104.726562 6.804688 104.574219 6.804688 104.367188 L 6.804688 103.136719 L 8.488281 102.808594 L 9.109375 100.234375 C 9.191406 99.90625 9.421875 99.742188 9.804688 99.742188 L 11.457031 99.742188 L 11.457031 102.832031 L 14.023438 102.832031 L 14.023438 104.988281 L 11.457031 104.988281 L 11.457031 110.238281 C 11.457031 110.480469 11.515625 110.683594 11.632812 110.839844 C 11.753906 111 11.925781 111.082031 12.148438 111.082031 C 12.265625 111.082031 12.359375 111.070312 12.441406 111.046875 C 12.519531 111.023438 12.585938 110.996094 12.644531 110.964844 C 12.699219 110.933594 12.757812 110.910156 12.808594 110.882812 C 12.859375 110.863281 12.917969 110.847656 12.984375 110.847656 C 13.082031 110.847656 13.15625 110.871094 13.214844 110.914062 C 13.273438 110.960938 13.332031 111.027344 13.390625 111.125 L 14.351562 112.621094 C 13.941406 112.925781 13.484375 113.15625 12.972656 113.308594 C 12.464844 113.460938 11.9375 113.539062 11.394531 113.539062 Z M 11.394531 113.539062 "/>
<path style=" stroke:none;fill-rule:nonzero;fill:rgb(91.764706%,38.039216%,3.529412%);fill-opacity:1;" d="M 20.371094 102.648438 C 21.074219 102.648438 21.714844 102.757812 22.292969 102.972656 C 22.875 103.191406 23.375 103.507812 23.792969 103.921875 C 24.210938 104.335938 24.539062 104.839844 24.773438 105.445312 C 25.007812 106.046875 25.125 106.726562 25.125 107.488281 C 25.125 107.722656 25.113281 107.917969 25.09375 108.066406 C 25.074219 108.214844 25.039062 108.335938 24.980469 108.421875 C 24.925781 108.511719 24.855469 108.574219 24.761719 108.605469 C 24.671875 108.640625 24.550781 108.65625 24.410156 108.65625 L 18.308594 108.65625 C 18.410156 109.539062 18.679688 110.179688 19.113281 110.578125 C 19.550781 110.976562 20.113281 111.175781 20.796875 111.175781 C 21.164062 111.175781 21.480469 111.128906 21.746094 111.042969 C 22.011719 110.957031 22.246094 110.859375 22.457031 110.746094 C 22.664062 110.640625 22.851562 110.539062 23.027344 110.453125 C 23.199219 110.363281 23.382812 110.320312 23.574219 110.320312 C 23.824219 110.320312 24.015625 110.410156 24.144531 110.59375 L 25.0625 111.726562 C 24.734375 112.097656 24.382812 112.402344 24.003906 112.636719 C 23.628906 112.871094 23.242188 113.054688 22.84375 113.1875 C 22.445312 113.320312 22.046875 113.410156 21.648438 113.460938 C 21.253906 113.511719 20.871094 113.539062 20.511719 113.539062 C 19.769531 113.539062 19.074219 113.417969 18.425781 113.175781 C 17.777344 112.933594 17.207031 112.578125 16.722656 112.101562 C 16.234375 111.628906 15.851562 111.035156 15.570312 110.328125 C 15.289062 109.625 15.144531 108.800781 15.144531 107.863281 C 15.144531 107.15625 15.265625 106.488281 15.507812 105.859375 C 15.75 105.226562 16.097656 104.671875 16.550781 104.199219 C 17.003906 103.722656 17.546875 103.34375 18.191406 103.066406 C 18.832031 102.789062 19.558594 102.648438 20.367188 102.648438 Z M 20.433594 104.828125 C 19.828125 104.828125 19.355469 105 19.015625 105.34375 C 18.675781 105.683594 18.449219 106.179688 18.34375 106.824219 L 22.289062 106.824219 C 22.289062 106.574219 22.257812 106.332031 22.195312 106.09375 C 22.128906 105.855469 22.023438 105.640625 21.878906 105.457031 C 21.730469 105.269531 21.539062 105.117188 21.304688 105.003906 C 21.066406 104.886719 20.773438 104.828125 20.4375 104.828125 Z M 20.433594 104.828125 "/>
<path style=" stroke:none;fill-rule:nonzero;fill:rgb(91.764706%,38.039216%,3.529412%);fill-opacity:1;" d="M 30.203125 98.121094 L 30.203125 113.371094 L 27.042969 113.371094 L 27.042969 98.121094 Z M 30.203125 98.121094 "/>
<path style=" stroke:none;fill-rule:nonzero;fill:rgb(91.764706%,38.039216%,3.529412%);fill-opacity:1;" d="M 37.285156 102.648438 C 37.988281 102.648438 38.628906 102.757812 39.207031 102.972656 C 39.789062 103.191406 40.289062 103.507812 40.707031 103.921875 C 41.125 104.335938 41.453125 104.839844 41.6875 105.445312 C 41.921875 106.046875 42.039062 106.726562 42.039062 107.488281 C 42.039062 107.722656 42.027344 107.917969 42.007812 108.066406 C 41.988281 108.214844 41.953125 108.335938 41.898438 108.421875 C 41.839844 108.511719 41.769531 108.574219 41.675781 108.605469 C 41.585938 108.640625 41.464844 108.65625 41.324219 108.65625 L 35.222656 108.65625 C 35.324219 109.539062 35.59375 110.179688 36.03125 110.578125 C 36.464844 110.976562 37.027344 111.175781 37.710938 111.175781 C 38.078125 111.175781 38.394531 111.128906 38.660156 111.042969 C 38.925781 110.957031 39.160156 110.859375 39.371094 110.746094 C 39.578125 110.640625 39.765625 110.539062 39.941406 110.453125 C 40.113281 110.363281 40.296875 110.320312 40.488281 110.320312 C 40.738281 110.320312 40.929688 110.410156 41.058594 110.59375 L 41.976562 111.726562 C 41.648438 112.097656 41.296875 112.402344 40.917969 112.636719 C 40.542969 112.871094 40.15625 113.054688 39.757812 113.1875 C 39.359375 113.320312 38.960938 113.410156 38.5625 113.460938 C 38.167969 113.511719 37.789062 113.539062 37.425781 113.539062 C 36.683594 113.539062 35.988281 113.417969 35.339844 113.175781 C 34.691406 112.933594 34.121094 112.578125 33.636719 112.101562 C 33.148438 111.628906 32.765625 111.035156 32.484375 110.328125 C 32.203125 109.625 32.0625 108.800781 32.0625 107.863281 C 32.0625 107.15625 32.179688 106.488281 32.421875 105.859375 C 32.664062 105.226562 33.011719 104.671875 33.464844 104.199219 C 33.917969 103.722656 34.464844 103.34375 35.105469 103.066406 C 35.746094 102.789062 36.472656 102.648438 37.285156 102.648438 Z M 37.347656 104.828125 C 36.742188 104.828125 36.269531 105 35.929688 105.34375 C 35.589844 105.683594 35.363281 106.179688 35.257812 106.824219 L 39.203125 106.824219 C 39.203125 106.574219 39.171875 106.332031 39.109375 106.09375 C 39.042969 105.855469 38.941406 105.640625 38.792969 105.457031 C 38.644531 105.269531 38.453125 105.117188 38.21875 105.003906 C 37.980469 104.886719 37.6875 104.828125 37.351562 104.828125 Z M 37.347656 104.828125 "/>
<path style=" stroke:none;fill-rule:nonzero;fill:rgb(91.764706%,38.039216%,3.529412%);fill-opacity:1;" d="M 47.589844 102.625 C 48.039062 102.625 48.460938 102.671875 48.859375 102.757812 C 49.257812 102.847656 49.625 102.972656 49.964844 103.136719 L 53.160156 103.136719 L 53.160156 104.285156 C 53.160156 104.460938 53.109375 104.601562 53.011719 104.703125 C 52.914062 104.804688 52.746094 104.882812 52.507812 104.9375 L 51.734375 105.109375 C 51.828125 105.414062 51.875 105.730469 51.875 106.058594 C 51.875 106.585938 51.765625 107.0625 51.542969 107.484375 C 51.324219 107.90625 51.019531 108.261719 50.636719 108.558594 C 50.25 108.855469 49.796875 109.082031 49.273438 109.242188 C 48.75 109.398438 48.1875 109.480469 47.589844 109.480469 C 47.257812 109.480469 46.945312 109.460938 46.652344 109.417969 C 46.421875 109.554688 46.304688 109.714844 46.304688 109.890625 C 46.304688 110.070312 46.398438 110.199219 46.585938 110.277344 C 46.773438 110.359375 47.019531 110.410156 47.324219 110.445312 C 47.632812 110.476562 47.980469 110.492188 48.375 110.492188 C 48.769531 110.492188 49.171875 110.507812 49.578125 110.546875 C 49.988281 110.585938 50.386719 110.648438 50.78125 110.738281 C 51.175781 110.824219 51.527344 110.96875 51.832031 111.167969 C 52.136719 111.363281 52.386719 111.628906 52.574219 111.960938 C 52.761719 112.289062 52.855469 112.710938 52.855469 113.222656 C 52.855469 113.699219 52.738281 114.164062 52.507812 114.621094 C 52.277344 115.078125 51.9375 115.484375 51.488281 115.835938 C 51.039062 116.191406 50.488281 116.476562 49.835938 116.691406 C 49.183594 116.902344 48.433594 117.011719 47.59375 117.011719 C 46.75 117.011719 46.046875 116.933594 45.445312 116.777344 C 44.84375 116.621094 44.34375 116.414062 43.945312 116.160156 C 43.546875 115.90625 43.253906 115.613281 43.0625 115.277344 C 42.875 114.945312 42.777344 114.597656 42.777344 114.238281 C 42.777344 113.769531 42.921875 113.371094 43.207031 113.050781 C 43.492188 112.726562 43.882812 112.472656 44.378906 112.292969 C 44.140625 112.136719 43.949219 111.933594 43.808594 111.691406 C 43.664062 111.445312 43.59375 111.136719 43.59375 110.765625 C 43.59375 110.609375 43.621094 110.445312 43.675781 110.269531 C 43.730469 110.097656 43.8125 109.929688 43.929688 109.765625 C 44.046875 109.601562 44.191406 109.449219 44.367188 109.296875 C 44.546875 109.148438 44.753906 109.015625 45 108.898438 C 44.449219 108.609375 44.015625 108.21875 43.699219 107.738281 C 43.382812 107.257812 43.222656 106.695312 43.222656 106.058594 C 43.222656 105.53125 43.335938 105.054688 43.5625 104.628906 C 43.785156 104.203125 44.09375 103.84375 44.484375 103.546875 C 44.875 103.253906 45.335938 103.023438 45.867188 102.867188 C 46.398438 102.707031 46.972656 102.625 47.59375 102.625 Z M 49.933594 113.738281 C 49.933594 113.5625 49.878906 113.425781 49.773438 113.320312 C 49.667969 113.21875 49.527344 113.132812 49.347656 113.070312 C 49.167969 113.007812 48.953125 112.964844 48.714844 112.933594 C 48.472656 112.910156 48.210938 112.894531 47.933594 112.894531 L 47.066406 112.894531 C 46.765625 112.894531 46.472656 112.867188 46.179688 112.804688 C 45.980469 112.941406 45.820312 113.09375 45.695312 113.261719 C 45.566406 113.425781 45.503906 113.617188 45.503906 113.828125 C 45.503906 113.976562 45.535156 114.113281 45.601562 114.234375 C 45.664062 114.355469 45.777344 114.460938 45.941406 114.550781 C 46.105469 114.636719 46.324219 114.707031 46.601562 114.757812 C 46.875 114.808594 47.226562 114.835938 47.648438 114.835938 C 48.101562 114.835938 48.476562 114.808594 48.769531 114.753906 C 49.0625 114.699219 49.296875 114.621094 49.46875 114.523438 C 49.640625 114.429688 49.761719 114.3125 49.832031 114.175781 C 49.898438 114.042969 49.933594 113.894531 49.933594 113.734375 Z M 47.589844 107.535156 C 48.113281 107.535156 48.492188 107.40625 48.726562 107.144531 C 48.960938 106.882812 49.078125 106.546875 49.078125 106.128906 C 49.078125 105.714844 48.960938 105.367188 48.726562 105.121094 C 48.492188 104.878906 48.113281 104.757812 47.589844 104.757812 C 47.0625 104.757812 46.683594 104.878906 46.449219 105.121094 C 46.214844 105.367188 46.097656 105.703125 46.097656 106.128906 C 46.097656 106.335938 46.125 106.523438 46.183594 106.691406 C 46.242188 106.863281 46.332031 107.007812 46.457031 107.132812 C 46.578125 107.261719 46.734375 107.359375 46.921875 107.429688 C 47.109375 107.5 47.332031 107.535156 47.589844 107.535156 Z M 47.589844 107.535156 "/>
<path style=" stroke:none;fill-rule:nonzero;fill:rgb(91.764706%,38.039216%,3.529412%);fill-opacity:1;" d="M 54.523438 113.375 L 54.523438 102.8125 L 56.402344 102.8125 C 56.558594 102.8125 56.6875 102.824219 56.792969 102.851562 C 56.898438 102.878906 56.988281 102.921875 57.058594 102.976562 C 57.128906 103.035156 57.1875 103.113281 57.222656 103.207031 C 57.257812 103.300781 57.292969 103.414062 57.320312 103.550781 L 57.492188 104.539062 C 57.882812 103.945312 58.316406 103.46875 58.796875 103.121094 C 59.28125 102.777344 59.808594 102.601562 60.378906 102.601562 C 60.863281 102.601562 61.25 102.71875 61.542969 102.949219 L 61.132812 105.269531 C 61.105469 105.414062 61.050781 105.511719 60.972656 105.574219 C 60.890625 105.632812 60.78125 105.65625 60.644531 105.65625 C 60.527344 105.65625 60.394531 105.644531 60.238281 105.613281 C 60.078125 105.582031 59.882812 105.570312 59.644531 105.570312 C 58.816406 105.570312 58.164062 106.011719 57.6875 106.890625 L 57.6875 113.371094 L 54.523438 113.371094 Z M 54.523438 113.375 "/>
<path style=" stroke:none;fill-rule:nonzero;fill:rgb(91.764706%,38.039216%,3.529412%);fill-opacity:1;" d="M 67.664062 102.648438 C 68.464844 102.648438 69.199219 102.773438 69.855469 103.023438 C 70.515625 103.277344 71.082031 103.636719 71.554688 104.105469 C 72.027344 104.574219 72.394531 105.140625 72.65625 105.8125 C 72.917969 106.480469 73.050781 107.234375 73.050781 108.066406 C 73.050781 108.902344 72.917969 109.667969 72.65625 110.34375 C 72.394531 111.019531 72.027344 111.59375 71.554688 112.066406 C 71.082031 112.539062 70.515625 112.898438 69.855469 113.15625 C 69.199219 113.410156 68.464844 113.535156 67.664062 113.535156 C 66.863281 113.535156 66.117188 113.410156 65.457031 113.15625 C 64.792969 112.898438 64.222656 112.535156 63.742188 112.066406 C 63.261719 111.59375 62.890625 111.019531 62.628906 110.34375 C 62.371094 109.667969 62.238281 108.910156 62.238281 108.066406 C 62.238281 107.226562 62.367188 106.480469 62.628906 105.8125 C 62.890625 105.144531 63.261719 104.574219 63.742188 104.105469 C 64.222656 103.636719 64.792969 103.277344 65.457031 103.023438 C 66.117188 102.773438 66.855469 102.648438 67.664062 102.648438 Z M 67.664062 111.195312 C 68.390625 111.195312 68.925781 110.9375 69.269531 110.429688 C 69.613281 109.914062 69.785156 109.132812 69.785156 108.089844 C 69.785156 107.046875 69.617188 106.265625 69.269531 105.757812 C 68.929688 105.246094 68.390625 104.992188 67.664062 104.992188 C 66.9375 104.992188 66.367188 105.246094 66.023438 105.757812 C 65.675781 106.265625 65.503906 107.042969 65.503906 108.089844 C 65.503906 109.136719 65.675781 109.914062 66.023438 110.429688 C 66.367188 110.941406 66.914062 111.195312 67.664062 111.195312 Z M 67.664062 111.195312 "/>
<path style=" stroke:none;fill-rule:nonzero;fill:rgb(91.764706%,38.039216%,3.529412%);fill-opacity:1;" d="M 81.25 105.121094 C 81.167969 105.25 81.082031 105.34375 80.992188 105.398438 C 80.898438 105.453125 80.78125 105.480469 80.636719 105.480469 C 80.488281 105.480469 80.339844 105.445312 80.191406 105.382812 C 80.039062 105.316406 79.878906 105.246094 79.703125 105.171875 C 79.53125 105.097656 79.335938 105.027344 79.117188 104.964844 C 78.898438 104.898438 78.652344 104.867188 78.371094 104.867188 C 77.972656 104.867188 77.664062 104.945312 77.449219 105.097656 C 77.238281 105.25 77.128906 105.460938 77.128906 105.734375 C 77.128906 105.929688 77.199219 106.09375 77.335938 106.222656 C 77.476562 106.351562 77.660156 106.464844 77.894531 106.566406 C 78.125 106.664062 78.386719 106.757812 78.679688 106.84375 C 78.96875 106.933594 79.269531 107.03125 79.574219 107.140625 C 79.882812 107.25 80.179688 107.378906 80.472656 107.523438 C 80.765625 107.667969 81.027344 107.847656 81.257812 108.0625 C 81.488281 108.273438 81.675781 108.535156 81.816406 108.839844 C 81.953125 109.148438 82.023438 109.511719 82.023438 109.941406 C 82.023438 110.464844 81.929688 110.945312 81.738281 111.386719 C 81.550781 111.828125 81.265625 112.210938 80.886719 112.527344 C 80.511719 112.847656 80.042969 113.09375 79.488281 113.269531 C 78.933594 113.445312 78.296875 113.535156 77.578125 113.535156 C 77.214844 113.535156 76.855469 113.5 76.496094 113.433594 C 76.136719 113.367188 75.785156 113.273438 75.449219 113.160156 C 75.113281 113.042969 74.800781 112.90625 74.515625 112.746094 C 74.230469 112.585938 73.984375 112.414062 73.78125 112.230469 L 74.515625 111.070312 C 74.605469 110.933594 74.710938 110.828125 74.832031 110.75 C 74.953125 110.671875 75.113281 110.632812 75.3125 110.632812 C 75.496094 110.632812 75.660156 110.671875 75.808594 110.753906 C 75.953125 110.835938 76.109375 110.925781 76.28125 111.019531 C 76.453125 111.113281 76.652344 111.203125 76.878906 111.28125 C 77.109375 111.363281 77.394531 111.40625 77.742188 111.40625 C 77.988281 111.40625 78.195312 111.378906 78.363281 111.328125 C 78.535156 111.277344 78.671875 111.210938 78.773438 111.121094 C 78.875 111.03125 78.949219 110.933594 78.996094 110.824219 C 79.042969 110.714844 79.066406 110.605469 79.066406 110.488281 C 79.066406 110.277344 78.996094 110.105469 78.855469 109.96875 C 78.710938 109.832031 78.523438 109.71875 78.292969 109.621094 C 78.0625 109.523438 77.800781 109.429688 77.5 109.34375 C 77.207031 109.261719 76.902344 109.164062 76.597656 109.054688 C 76.292969 108.945312 75.992188 108.816406 75.695312 108.660156 C 75.398438 108.507812 75.136719 108.316406 74.902344 108.082031 C 74.671875 107.847656 74.484375 107.558594 74.34375 107.21875 C 74.199219 106.878906 74.128906 106.472656 74.128906 105.988281 C 74.128906 105.539062 74.214844 105.113281 74.390625 104.710938 C 74.5625 104.304688 74.824219 103.949219 75.171875 103.644531 C 75.515625 103.339844 75.953125 103.097656 76.476562 102.914062 C 77 102.734375 77.613281 102.644531 78.3125 102.644531 C 78.695312 102.644531 79.0625 102.679688 79.421875 102.746094 C 79.777344 102.816406 80.113281 102.910156 80.425781 103.03125 C 80.738281 103.152344 81.023438 103.296875 81.28125 103.464844 C 81.542969 103.632812 81.769531 103.8125 81.964844 104.011719 L 81.253906 105.121094 Z M 81.25 105.121094 "/>
<path style=" stroke:none;fill-rule:nonzero;fill:rgb(91.764706%,38.039216%,3.529412%);fill-opacity:1;" d="M 87.390625 99.917969 C 87.390625 100.167969 87.339844 100.402344 87.238281 100.625 C 87.136719 100.847656 86.996094 101.039062 86.820312 101.203125 C 86.640625 101.371094 86.4375 101.503906 86.203125 101.601562 C 85.96875 101.699219 85.714844 101.746094 85.453125 101.746094 C 85.1875 101.746094 84.953125 101.699219 84.726562 101.601562 C 84.503906 101.503906 84.304688 101.371094 84.128906 101.203125 C 83.957031 101.039062 83.820312 100.84375 83.722656 100.625 C 83.625 100.402344 83.574219 100.167969 83.574219 99.917969 C 83.574219 99.667969 83.621094 99.417969 83.722656 99.195312 C 83.820312 98.96875 83.957031 98.773438 84.128906 98.605469 C 84.304688 98.433594 84.503906 98.300781 84.726562 98.207031 C 84.953125 98.109375 85.191406 98.0625 85.453125 98.0625 C 85.710938 98.0625 85.96875 98.113281 86.203125 98.207031 C 86.4375 98.300781 86.640625 98.433594 86.820312 98.605469 C 86.996094 98.773438 87.136719 98.96875 87.238281 99.195312 C 87.339844 99.417969 87.390625 99.660156 87.390625 99.917969 Z M 87.023438 102.808594 L 87.023438 113.371094 L 83.859375 113.371094 L 83.859375 102.808594 Z M 87.023438 102.808594 "/>
<path style=" stroke:none;fill-rule:nonzero;fill:rgb(91.764706%,38.039216%,3.529412%);fill-opacity:1;" d="M 92.734375 98.121094 L 92.734375 106.671875 L 93.203125 106.671875 C 93.402344 106.671875 93.554688 106.644531 93.660156 106.589844 C 93.765625 106.535156 93.867188 106.4375 93.960938 106.292969 L 95.960938 103.316406 C 96.078125 103.140625 96.214844 103.011719 96.375 102.929688 C 96.53125 102.851562 96.738281 102.808594 96.980469 102.808594 L 99.878906 102.808594 L 97.148438 106.570312 C 97.015625 106.746094 96.875 106.902344 96.722656 107.035156 C 96.570312 107.171875 96.40625 107.296875 96.230469 107.402344 C 96.535156 107.636719 96.800781 107.9375 97.023438 108.320312 L 100.003906 113.371094 L 97.148438 113.371094 C 96.910156 113.371094 96.703125 113.332031 96.527344 113.253906 C 96.355469 113.175781 96.214844 113.039062 96.105469 112.839844 L 94.105469 109.101562 C 94.011719 108.929688 93.914062 108.820312 93.808594 108.769531 C 93.707031 108.71875 93.554688 108.695312 93.351562 108.695312 L 92.738281 108.695312 L 92.738281 113.371094 L 89.578125 113.371094 L 89.578125 98.121094 L 92.738281 98.121094 Z M 92.734375 98.121094 "/>
<path style=" stroke:none;fill-rule:nonzero;fill:rgb(1.176471%,25.490198%,33.725491%);fill-opacity:1;" d="M 48.976562 95.515625 C 48.535156 95.515625 48.375 95.398438 48.257812 94.984375 L 46.613281 89.039062 L 46.382812 89.039062 L 44.714844 94.984375 C 44.597656 95.398438 44.4375 95.515625 43.996094 95.515625 L 41.238281 95.515625 L 37.878906 84.6875 L 40.542969 84.6875 C 40.867188 84.6875 41.03125 84.828125 41.125 85.175781 L 43 92.230469 L 43.230469 92.230469 L 45.15625 85.175781 C 45.273438 84.804688 45.410156 84.6875 45.597656 84.6875 L 47.378906 84.6875 C 47.566406 84.6875 47.726562 84.804688 47.820312 85.175781 L 49.742188 92.230469 L 49.976562 92.230469 L 51.878906 85.175781 C 51.945312 84.828125 52.109375 84.6875 52.433594 84.6875 L 55.121094 84.6875 L 51.761719 95.515625 Z M 48.976562 95.515625 "/>
<path style=" stroke:none;fill-rule:nonzero;fill:rgb(1.176471%,25.490198%,33.725491%);fill-opacity:1;" d="M 56.390625 81.285156 C 56.390625 80.40625 57.0625 79.875 58.082031 79.875 C 59.101562 79.875 59.796875 80.40625 59.796875 81.285156 C 59.796875 82.167969 59.128906 82.699219 58.082031 82.699219 C 57.039062 82.699219 56.390625 82.167969 56.390625 81.285156 Z M 56.625 95.515625 L 56.625 84.6875 L 59.566406 84.6875 L 59.566406 95.515625 Z M 56.625 95.515625 "/>
<path style=" stroke:none;fill-rule:nonzero;fill:rgb(1.176471%,25.490198%,33.725491%);fill-opacity:1;" d="M 61.882812 90.101562 C 61.882812 86.65625 63.761719 84.480469 66.566406 84.480469 C 67.957031 84.480469 68.976562 84.921875 69.761719 86.054688 L 69.996094 85.960938 L 69.996094 79.691406 L 72.960938 79.691406 L 72.960938 95.519531 L 69.996094 95.519531 L 69.996094 94.246094 L 69.761719 94.152344 C 68.976562 95.289062 67.957031 95.726562 66.566406 95.726562 C 63.761719 95.726562 61.882812 93.554688 61.882812 90.105469 Z M 69.996094 90.101562 C 69.996094 87.976562 69.070312 86.75 67.46875 86.75 C 65.871094 86.75 64.921875 87.976562 64.921875 90.101562 C 64.921875 92.230469 65.871094 93.457031 67.46875 93.457031 C 69.070312 93.457031 69.996094 92.230469 69.996094 90.101562 Z M 69.996094 90.101562 "/>
<path style=" stroke:none;fill-rule:nonzero;fill:rgb(1.176471%,25.490198%,33.725491%);fill-opacity:1;" d="M 75.253906 90.054688 C 75.253906 86.703125 77.570312 84.480469 80.605469 84.480469 C 83.640625 84.480469 85.492188 86.449219 85.492188 89.363281 C 85.492188 89.617188 85.398438 90.101562 85.355469 90.355469 L 78.289062 90.355469 C 78.289062 92.414062 79.515625 93.457031 81.347656 93.457031 C 82.832031 93.457031 83.617188 92.621094 84.082031 92.621094 C 84.359375 92.621094 84.523438 92.714844 84.753906 93.222656 L 85.195312 94.242188 C 84.195312 95.050781 82.832031 95.722656 80.722656 95.722656 C 77.316406 95.722656 75.253906 93.292969 75.253906 90.050781 Z M 78.285156 88.761719 L 82.433594 88.761719 C 82.433594 87.441406 81.738281 86.449219 80.441406 86.449219 C 79.144531 86.449219 78.285156 87.464844 78.285156 88.761719 Z M 78.285156 88.761719 "/>
<path style=" stroke:none;fill-rule:nonzero;fill:rgb(1.176471%,25.490198%,33.725491%);fill-opacity:1;" d="M 87.1875 90.101562 C 87.1875 86.703125 89.457031 84.480469 92.769531 84.480469 C 96.085938 84.480469 98.355469 86.703125 98.355469 90.101562 C 98.355469 93.503906 96.085938 95.726562 92.769531 95.726562 C 89.457031 95.726562 87.1875 93.503906 87.1875 90.101562 Z M 95.296875 90.101562 C 95.296875 87.976562 94.277344 86.75 92.773438 86.75 C 91.265625 86.75 90.222656 87.976562 90.222656 90.101562 C 90.222656 92.230469 91.242188 93.457031 92.773438 93.457031 C 94.300781 93.457031 95.296875 92.230469 95.296875 90.101562 Z M 95.296875 90.101562 "/>
<path style=" stroke:none;fill-rule:nonzero;fill:rgb(100%,100%,100%);fill-opacity:1;" d="M 49.589844 94.855469 C 49.148438 94.855469 48.988281 94.742188 48.871094 94.324219 L 47.226562 88.378906 L 46.992188 88.378906 L 45.324219 94.324219 C 45.207031 94.742188 45.046875 94.855469 44.605469 94.855469 L 41.851562 94.855469 L 38.492188 84.027344 L 41.15625 84.027344 C 41.480469 84.027344 41.644531 84.167969 41.734375 84.515625 L 43.613281 91.570312 L 43.84375 91.570312 L 45.765625 84.515625 C 45.882812 84.144531 46.023438 84.027344 46.207031 84.027344 L 47.992188 84.027344 C 48.179688 84.027344 48.339844 84.144531 48.433594 84.515625 L 50.355469 91.570312 L 50.589844 91.570312 L 52.488281 84.515625 C 52.558594 84.167969 52.722656 84.027344 53.046875 84.027344 L 55.734375 84.027344 L 52.375 94.855469 Z M 49.589844 94.855469 "/>
<path style=" stroke:none;fill-rule:nonzero;fill:rgb(100%,100%,100%);fill-opacity:1;" d="M 57.003906 80.625 C 57.003906 79.746094 57.675781 79.214844 58.695312 79.214844 C 59.714844 79.214844 60.410156 79.746094 60.410156 80.625 C 60.410156 81.503906 59.738281 82.035156 58.695312 82.035156 C 57.652344 82.035156 57.003906 81.503906 57.003906 80.625 Z M 57.238281 94.855469 L 57.238281 84.027344 L 60.179688 84.027344 L 60.179688 94.855469 Z M 57.238281 94.855469 "/>
<path style=" stroke:none;fill-rule:nonzero;fill:rgb(100%,100%,100%);fill-opacity:1;" d="M 62.496094 89.441406 C 62.496094 85.992188 64.371094 83.816406 67.175781 83.816406 C 68.566406 83.816406 69.585938 84.257812 70.375 85.390625 L 70.605469 85.300781 L 70.605469 79.03125 L 73.570312 79.03125 L 73.570312 94.855469 L 70.605469 94.855469 L 70.605469 93.582031 L 70.375 93.492188 C 69.585938 94.625 68.566406 95.066406 67.175781 95.066406 C 64.371094 95.066406 62.496094 92.890625 62.496094 89.441406 Z M 70.605469 89.441406 C 70.605469 87.3125 69.679688 86.085938 68.082031 86.085938 C 66.484375 86.085938 65.53125 87.3125 65.53125 89.441406 C 65.53125 91.570312 66.484375 92.796875 68.082031 92.796875 C 69.679688 92.796875 70.605469 91.570312 70.605469 89.441406 Z M 70.605469 89.441406 "/>
<path style=" stroke:none;fill-rule:nonzero;fill:rgb(100%,100%,100%);fill-opacity:1;" d="M 75.863281 89.394531 C 75.863281 86.039062 78.179688 83.816406 81.21875 83.816406 C 84.253906 83.816406 86.105469 85.785156 86.105469 88.699219 C 86.105469 88.953125 86.011719 89.441406 85.96875 89.695312 L 78.902344 89.695312 C 78.902344 91.753906 80.128906 92.792969 81.960938 92.792969 C 83.441406 92.792969 84.230469 91.960938 84.695312 91.960938 C 84.972656 91.960938 85.136719 92.050781 85.367188 92.5625 L 85.804688 93.578125 C 84.808594 94.390625 83.441406 95.058594 81.332031 95.058594 C 77.929688 95.058594 75.867188 92.628906 75.867188 89.390625 Z M 78.898438 88.097656 L 83.046875 88.097656 C 83.046875 86.78125 82.351562 85.785156 81.054688 85.785156 C 79.757812 85.785156 78.898438 86.804688 78.898438 88.097656 Z M 78.898438 88.097656 "/>
<path style=" stroke:none;fill-rule:nonzero;fill:rgb(100%,100%,100%);fill-opacity:1;" d="M 87.796875 89.441406 C 87.796875 86.039062 90.066406 83.816406 93.382812 83.816406 C 96.695312 83.816406 98.964844 86.039062 98.964844 89.441406 C 98.964844 92.84375 96.695312 95.0625 93.382812 95.0625 C 90.066406 95.0625 87.796875 92.84375 87.796875 89.441406 Z M 95.910156 89.441406 C 95.910156 87.3125 94.890625 86.085938 93.382812 86.085938 C 91.878906 86.085938 90.835938 87.3125 90.835938 89.441406 C 90.835938 91.570312 91.855469 92.796875 93.382812 92.796875 C 94.914062 92.796875 95.910156 91.570312 95.910156 89.441406 Z M 95.910156 89.441406 "/>
<path style=" stroke:none;fill-rule:nonzero;fill:rgb(91.764706%,38.039216%,3.529412%);fill-opacity:1;" d="M 50.195312 94.746094 C 49.757812 94.746094 49.59375 94.628906 49.480469 94.214844 L 47.832031 88.269531 L 47.601562 88.269531 L 45.933594 94.214844 C 45.816406 94.628906 45.65625 94.746094 45.214844 94.746094 L 42.457031 94.746094 L 39.097656 83.917969 L 41.765625 83.917969 C 42.089844 83.917969 42.25 84.054688 42.34375 84.40625 L 44.21875 91.460938 L 44.453125 91.460938 L 46.375 84.40625 C 46.492188 84.035156 46.628906 83.917969 46.816406 83.917969 L 48.601562 83.917969 C 48.785156 83.917969 48.945312 84.035156 49.039062 84.40625 L 50.964844 91.460938 L 51.195312 91.460938 L 53.097656 84.40625 C 53.167969 84.058594 53.328125 83.917969 53.652344 83.917969 L 56.339844 83.917969 L 52.984375 94.746094 Z M 50.195312 94.746094 "/>
<path style=" stroke:none;fill-rule:nonzero;fill:rgb(91.764706%,38.039216%,3.529412%);fill-opacity:1;" d="M 57.613281 80.515625 C 57.613281 79.636719 58.28125 79.105469 59.300781 79.105469 C 60.320312 79.105469 61.019531 79.636719 61.019531 80.515625 C 61.019531 81.394531 60.347656 81.925781 59.300781 81.925781 C 58.257812 81.925781 57.613281 81.394531 57.613281 80.515625 Z M 57.84375 94.746094 L 57.84375 83.917969 L 60.789062 83.917969 L 60.789062 94.746094 Z M 57.84375 94.746094 "/>
<path style=" stroke:none;fill-rule:nonzero;fill:rgb(91.764706%,38.039216%,3.529412%);fill-opacity:1;" d="M 63.101562 89.332031 C 63.101562 85.882812 64.976562 83.707031 67.78125 83.707031 C 69.171875 83.707031 70.191406 84.148438 70.980469 85.28125 L 71.210938 85.191406 L 71.210938 78.921875 L 74.175781 78.921875 L 74.175781 94.746094 L 71.210938 94.746094 L 71.210938 93.472656 L 70.980469 93.382812 C 70.191406 94.515625 69.171875 94.957031 67.78125 94.957031 C 64.976562 94.957031 63.101562 92.78125 63.101562 89.332031 Z M 71.210938 89.332031 C 71.210938 87.203125 70.285156 85.976562 68.6875 85.976562 C 67.089844 85.976562 66.136719 87.203125 66.136719 89.332031 C 66.136719 91.460938 67.089844 92.683594 68.6875 92.683594 C 70.285156 92.683594 71.210938 91.460938 71.210938 89.332031 Z M 71.210938 89.332031 "/>
<path style=" stroke:none;fill-rule:nonzero;fill:rgb(91.764706%,38.039216%,3.529412%);fill-opacity:1;" d="M 76.472656 89.285156 C 76.472656 85.929688 78.789062 83.707031 81.824219 83.707031 C 84.863281 83.707031 86.714844 85.675781 86.714844 88.589844 C 86.714844 88.84375 86.621094 89.332031 86.574219 89.582031 L 79.507812 89.582031 C 79.507812 91.644531 80.734375 92.683594 82.566406 92.683594 C 84.050781 92.683594 84.835938 91.851562 85.300781 91.851562 C 85.578125 91.851562 85.742188 91.941406 85.972656 92.453125 L 86.414062 93.46875 C 85.417969 94.28125 84.050781 94.949219 81.941406 94.949219 C 78.535156 94.949219 76.472656 92.519531 76.472656 89.28125 Z M 79.507812 87.988281 L 83.65625 87.988281 C 83.65625 86.667969 82.960938 85.675781 81.660156 85.675781 C 80.363281 85.675781 79.507812 86.695312 79.507812 87.988281 Z M 79.507812 87.988281 "/>
<path style=" stroke:none;fill-rule:nonzero;fill:rgb(91.764706%,38.039216%,3.529412%);fill-opacity:1;" d="M 88.402344 89.332031 C 88.402344 85.929688 90.675781 83.707031 93.988281 83.707031 C 97.300781 83.707031 99.570312 85.929688 99.570312 89.332031 C 99.570312 92.730469 97.300781 94.953125 93.988281 94.953125 C 90.675781 94.953125 88.402344 92.730469 88.402344 89.332031 Z M 96.515625 89.332031 C 96.515625 87.203125 95.496094 85.976562 93.988281 85.976562 C 92.484375 85.976562 91.441406 87.203125 91.441406 89.332031 C 91.441406 91.460938 92.460938 92.683594 93.988281 92.683594 C 95.519531 92.683594 96.515625 91.460938 96.515625 89.332031 Z M 96.515625 89.332031 "/>
</g>
</svg>
